<svg width="16" height="16" viewBox="0 0 16 16" fill="none" xmlns="http://www.w3.org/2000/svg">
<g id="Icon/cog">
<g id="cog-solid">
<path id="Shape" fill-rule="evenodd" clip-rule="evenodd" d="M6.20868 1.41211L6.13512 1.79464L5.85558 3.19233C5.40685 3.36888 5.00225 3.61716 4.63444 3.91325L3.26617 3.44245L2.89835 3.32475L2.70709 3.66314L1.76548 5.28152L1.57422 5.61991L1.85376 5.87002L2.91306 6.79692C2.87444 7.03784 2.82479 7.27876 2.82479 7.53255C2.82479 7.78634 2.87444 8.02726 2.91306 8.26818L1.85376 9.19507L1.57422 9.44518L1.76548 9.78357L2.70709 11.402L2.89835 11.7403L3.26617 11.6226L4.63444 11.1518C5.00225 11.4479 5.40685 11.6962 5.85558 11.8728L6.13512 13.2705L6.20868 13.653H8.85695L8.93051 13.2705L9.21005 11.8728C9.65879 11.6962 10.0634 11.4479 10.4312 11.1518L11.7995 11.6226L12.1673 11.7403L12.3585 11.402L13.3002 9.78357L13.4914 9.44518L13.2119 9.19507L12.1526 8.26818C12.1912 8.02726 12.2408 7.78634 12.2408 7.53255C12.2408 7.27876 12.1912 7.03784 12.1526 6.79692L13.2119 5.87002L13.4914 5.61991L13.3002 5.28152L12.3585 3.66314L12.1673 3.32475L11.7995 3.44245L10.4312 3.91325C10.0634 3.61716 9.65879 3.36888 9.21005 3.19233L8.93051 1.79464L8.85695 1.41211H6.20868ZM6.97374 2.35372H8.0919L8.3273 3.57486L8.38615 3.8544L8.65098 3.94268C9.18615 4.11003 9.67166 4.39325 10.0781 4.76658L10.2841 4.95784L10.5489 4.86957L11.7406 4.45762L12.2997 5.41393L11.3581 6.25255L11.1374 6.4291L11.211 6.70864C11.2717 6.97715 11.2992 7.25117 11.2992 7.53255C11.2992 7.81393 11.2717 8.08795 11.211 8.35645L11.1521 8.63599L11.3581 8.81254L12.2997 9.65116L11.7406 10.6075L10.5489 10.1955L10.2841 10.1073L10.0781 10.2985C9.67166 10.6718 9.18615 10.9551 8.65098 11.1224L8.38615 11.2107L8.3273 11.4902L8.0919 12.7114H6.97374L6.73834 11.4902L6.67949 11.2107L6.41466 11.1224C5.87949 10.9551 5.39398 10.6718 4.98754 10.2985L4.78156 10.1073L4.51674 10.1955L3.32502 10.6075L2.76594 9.65116L3.70754 8.81254L3.92823 8.63599L3.85467 8.35645C3.79398 8.08795 3.76639 7.81393 3.76639 7.53255C3.76639 7.25117 3.79398 6.97715 3.85467 6.70864L3.92823 6.4291L3.70754 6.25255L2.76594 5.41393L3.32502 4.45762L4.51674 4.86957L4.78156 4.95784L4.98754 4.76658C5.39398 4.39325 5.87949 4.11003 6.41466 3.94268L6.67949 3.8544L6.73834 3.57486L6.97374 2.35372ZM7.53282 5.17853C6.23811 5.17853 5.1788 6.23784 5.1788 7.53255C5.1788 8.82726 6.23811 9.88656 7.53282 9.88656C8.82753 9.88656 9.88683 8.82726 9.88683 7.53255C9.88683 6.23784 8.82753 5.17853 7.53282 5.17853ZM7.53282 6.12014C8.3181 6.12014 8.94523 6.74726 8.94523 7.53255C8.94523 8.31783 8.3181 8.94496 7.53282 8.94496C6.74753 8.94496 6.12041 8.31783 6.12041 7.53255C6.12041 6.74726 6.74753 6.12014 7.53282 6.12014Z" fill="#001C36"/>
</g>
</g>
</svg>
