<svg width="16" height="16" viewBox="0 0 16 16" fill="none" xmlns="http://www.w3.org/2000/svg">
<g id="DEMO (1) 1" clip-path="url(#clip0_9637_101222)">
<path id="Vector" d="M11.7159 15.0653C11.0918 15.0653 10.55 14.9315 10.0902 14.6639C9.63694 14.3897 9.28547 13.9884 9.03588 13.4601C8.78629 12.9317 8.6615 12.2796 8.6615 11.5038C8.6615 10.8818 8.74028 10.3367 8.89797 9.86853C9.05559 9.4003 9.27894 9.01242 9.56795 8.70477C9.85696 8.3904 10.1985 8.15631 10.5927 8.00252C10.9934 7.84194 11.4367 7.76172 11.9228 7.76172C12.4023 7.76172 12.8326 7.83862 13.2135 7.99247C13.6011 8.14627 13.9295 8.37037 14.1988 8.66459C14.4747 8.95888 14.6882 9.32673 14.8393 9.76815C14.9904 10.2029 15.0659 10.7079 15.0659 11.2831C15.0659 12.0655 14.9247 12.7411 14.6423 13.3096C14.3664 13.8714 13.9788 14.3061 13.4796 14.6138C12.9804 14.9148 12.3925 15.0653 11.7159 15.0653ZM11.8243 13.9617C12.1527 13.9617 12.445 13.8814 12.7012 13.7209C12.9574 13.5537 13.161 13.2795 13.3121 12.8982C13.4697 12.5104 13.5486 11.992 13.5486 11.3433C13.5486 10.7413 13.4763 10.2597 13.3318 9.8986C13.1938 9.53074 13.0001 9.26659 12.7505 9.10602C12.5009 8.94551 12.2053 8.86528 11.8637 8.86528C11.5353 8.86528 11.2429 8.94551 10.9868 9.10602C10.7306 9.26659 10.5303 9.53407 10.3858 9.90864C10.2478 10.2832 10.1788 10.7981 10.1788 11.4536C10.1788 12.0556 10.2445 12.5404 10.3759 12.9083C10.5072 13.2695 10.6945 13.537 10.9375 13.7109C11.1871 13.8781 11.4827 13.9617 11.8243 13.9617Z" fill="white"/>
<path id="Vector_2" d="M7.89223 8.60515L6.97592 8.92617L7.17296 8.55493V14.2433L6.97592 13.9523L7.89223 14.2232V14.9455H5.14327V14.2232L6.09901 13.9423L5.87239 14.2433V9.41776L6.0793 9.4278L4.2762 13.1096L3.38944 13.1598L1.65531 9.40771H1.86222V14.2433L1.70457 13.9724L2.59134 14.2232V14.9455H0V14.2232L0.916327 13.9523L0.729123 14.2433V8.55493L0.916327 8.90609L0 8.65531V7.93297L2.4534 7.88281L4.07914 11.7252H3.91164L5.61621 7.93297L7.89223 7.88281V8.60515Z" fill="white"/>
<path id="Vector_3" d="M11.3298 5.17667H12.1673L12.1476 7.06273H7.01416V6.3404L7.93053 6.06955L7.74328 6.36048V0.742393L7.92068 1.02329L7.01416 0.772487V0.0501617L9.12273 0H12.0392V1.80582H11.2017L11.0046 0.832681L11.2707 1.03333H8.93554L9.1523 0.812618V3.19028L8.93554 2.96957H11.2707V3.96277H8.93554L9.1523 3.71195V6.25013L8.93554 6.02942H11.3889L11.1229 6.25013L11.3298 5.17667Z" fill="white"/>
<path id="Vector_4" d="M3.1037 0C3.58321 0 4.01674 0.0702262 4.40429 0.210679C4.79841 0.351131 5.13342 0.565154 5.4093 0.85275C5.68518 1.14034 5.89538 1.49816 6.03989 1.92621C6.19097 2.34756 6.26651 2.84249 6.26651 3.41099C6.26651 4.20689 6.12528 4.8757 5.84283 5.41745C5.56695 5.9592 5.17611 6.37053 4.67032 6.65144C4.17111 6.92564 3.57992 7.06273 2.89678 7.06273H0V6.3404L0.916327 6.06955L0.729123 6.36048V0.742393L0.936038 1.03333L0 0.772487V0.0501617L2.23663 0H3.1037ZM2.96576 6.02942C3.17595 6.02942 3.38615 5.99933 3.59634 5.93913C3.80654 5.87225 3.99704 5.75186 4.16782 5.57797C4.34517 5.40408 4.4864 5.14992 4.5915 4.81551C4.6966 4.4811 4.74915 4.03968 4.74915 3.49125C4.74915 2.96288 4.69988 2.53817 4.60135 2.21714C4.50282 1.88942 4.37145 1.64195 4.20723 1.47475C4.04302 1.30086 3.85909 1.18381 3.65546 1.12362C3.45841 1.06342 3.26135 1.03333 3.06429 1.03333H1.92133L2.1381 0.812618V6.25013L1.92133 6.02942H2.96576Z" fill="white"/>
</g>
<defs>
<clipPath id="clip0_9637_101222">
<rect width="15.0657" height="15.0657" fill="white"/>
</clipPath>
</defs>
</svg>
