<svg width="30" height="30" viewBox="0 0 30 30" fill="none" xmlns="http://www.w3.org/2000/svg">
<path fill-rule="evenodd" clip-rule="evenodd" d="M8.4375 27.7504H21.5625C23.4265 27.7504 24.9375 26.2393 24.9375 24.3754V9.42635C24.9375 8.5227 24.5751 7.6568 23.9315 7.02251L20.0746 3.22153C19.4432 2.59922 18.5922 2.25037 17.7056 2.25037H8.4375C6.57354 2.25037 5.0625 3.7614 5.0625 5.62537V24.3754C5.0625 26.2393 6.57354 27.7504 8.4375 27.7504ZM6.5625 5.62537C6.5625 4.58983 7.40197 3.75037 8.4375 3.75037H17.0672C17.0641 3.77796 17.0625 3.806 17.0625 3.83441V8.43754C17.0625 9.36952 17.818 10.125 18.75 10.125H23.3531C23.3817 10.125 23.4098 10.1234 23.4375 10.1203V24.3754C23.4375 25.4109 22.598 26.2504 21.5625 26.2504H8.4375C7.40197 26.2504 6.5625 25.4109 6.5625 24.3754V5.62537ZM23.2576 8.62504C23.1645 8.42801 23.0369 8.24684 22.8786 8.09088L19.0217 4.2899C18.8851 4.15528 18.7301 4.0437 18.5625 3.95763V8.43754C18.5625 8.54109 18.6465 8.62504 18.75 8.62504H23.2576ZM12.1913 7.68768C12.6055 7.68768 12.9413 8.02347 12.9413 8.43768V8.62518H13.5937C14.008 8.62518 14.3437 8.96097 14.3437 9.37518C14.3437 9.7894 14.008 10.1252 13.5937 10.1252H12.1917H12.1913H12.1908H11.6919C11.4487 10.1254 11.2397 10.2981 11.1935 10.5369C11.1474 10.7756 11.2768 11.0135 11.5023 11.1045L13.4378 11.8791C14.3299 12.238 14.8423 13.179 14.6598 14.1231C14.4935 14.9837 13.7923 15.6267 12.9413 15.7343V15.9377C12.9413 16.3519 12.6055 16.6877 12.1913 16.6877C11.7771 16.6877 11.4413 16.3519 11.4413 15.9377V15.7502H10.7812C10.367 15.7502 10.0312 15.4144 10.0312 15.0002C10.0312 14.586 10.367 14.2502 10.7812 14.2502H12.1913H12.6885C12.9317 14.2498 13.1409 14.0772 13.1871 13.8385C13.2332 13.5997 13.1038 13.3618 12.8783 13.2708L10.9441 12.4968L10.9428 12.4963C10.0508 12.1373 9.53832 11.1964 9.7208 10.2522C9.88722 9.39117 10.5895 8.74791 11.4413 8.6409V8.43768C11.4413 8.02347 11.7771 7.68768 12.1913 7.68768ZM9.64406 19.6877C9.64406 19.2735 9.97984 18.9377 10.3941 18.9377H20.6287C21.043 18.9377 21.3787 19.2735 21.3787 19.6877C21.3787 20.1019 21.043 20.4377 20.6287 20.4377H10.3941C9.97984 20.4377 9.64406 20.1019 9.64406 19.6877ZM15.9563 16.1252C15.542 16.1252 15.2063 16.461 15.2063 16.8752C15.2063 17.2894 15.542 17.6252 15.9563 17.6252H20.6288C21.043 17.6252 21.3788 17.2894 21.3788 16.8752C21.3788 16.461 21.043 16.1252 20.6288 16.1252H15.9563ZM17.0663 14.0627C17.0663 13.6485 17.4021 13.3127 17.8163 13.3127H20.6288C21.043 13.3127 21.3788 13.6485 21.3788 14.0627C21.3788 14.4769 21.043 14.8127 20.6288 14.8127H17.8163C17.4021 14.8127 17.0663 14.4769 17.0663 14.0627ZM10.3941 21.7502C9.97984 21.7502 9.64406 22.086 9.64406 22.5002C9.64406 22.9144 9.97984 23.2502 10.3941 23.2502H20.6287C21.043 23.2502 21.3787 22.9144 21.3787 22.5002C21.3787 22.086 21.043 21.7502 20.6287 21.7502H10.3941Z" fill="black"/>
</svg>
