<svg width="16" height="16" viewBox="0 0 16 16" fill="none" xmlns="http://www.w3.org/2000/svg">
    <path fill-rule="evenodd" clip-rule="evenodd"
        d="M8 2C6.67578 2 5.52539 2.61914 4.70312 3.53125C4.63477 3.52344 4.57422 3.5 4.5 3.5C3.40039 3.5 2.5 4.40039 2.5 5.5C1.63477 6.02734 1 6.91797 1 8C1 9.65039 2.34961 11 4 11H6.5V10H4C2.89062 10 2 9.10938 2 8C2 7.16992 2.50391 6.46094 3.21875 6.15625L3.5625 6.01562L3.51562 5.64062C3.50586 5.55859 3.5 5.51172 3.5 5.5C3.5 4.94141 3.94141 4.5 4.5 4.5C4.57031 4.5 4.64844 4.50977 4.73438 4.53125L5.04688 4.60938L5.23438 4.35938C5.875 3.53711 6.875 3 8 3C9.63867 3 11.0059 4.12695 11.3906 5.64062L11.4844 6.03125L11.9062 6.01562C12.0117 6.00977 12.0352 6 12 6C13.1094 6 14 6.89062 14 8C14 9.10938 13.1094 10 12 10H9.5V11H12C13.6504 11 15 9.65039 15 8C15 6.42188 13.7559 5.1582 12.2031 5.04688C11.5918 3.28711 9.96289 2 8 2ZM7.5 8V12H6L8 14L10 12H8.5V8H7.5Z"
        fill="#001C36" />
</svg>