<svg width="20" height="20" viewBox="0 0 20 20" fill="none" xmlns="http://www.w3.org/2000/svg">
    <path fill-rule="evenodd" clip-rule="evenodd"
        d="M5.33654 4.3125C5.23071 4.3125 5.12921 4.35454 5.05438 4.42938C4.97954 4.50421 4.9375 4.60571 4.9375 4.71154V15.2885C4.9375 15.3943 4.97954 15.4958 5.05438 15.5706C5.12921 15.6455 5.23071 15.6875 5.33654 15.6875H12.0673C12.1731 15.6875 12.2746 15.6455 12.3495 15.5706C12.4243 15.4958 12.4663 15.3943 12.4663 15.2885V12.8846C12.4663 12.574 12.7182 12.3221 13.0288 12.3221C13.3395 12.3221 13.5913 12.574 13.5913 12.8846V15.2885C13.5913 15.6927 13.4308 16.0803 13.145 16.3661C12.8592 16.6519 12.4715 16.8125 12.0673 16.8125H5.33654C4.93234 16.8125 4.54469 16.6519 4.25888 16.3661C3.97307 16.0803 3.8125 15.6927 3.8125 15.2885V4.71154C3.8125 4.30734 3.97307 3.91969 4.25888 3.63388C4.54469 3.34807 4.93234 3.1875 5.33654 3.1875H12.0673C12.4715 3.1875 12.8592 3.34807 13.145 3.63388C13.4308 3.91969 13.5913 4.30734 13.5913 4.71154V7.11538C13.5913 7.42604 13.3395 7.67788 13.0288 7.67788C12.7182 7.67788 12.4663 7.42604 12.4663 7.11538V4.71154C12.4663 4.60571 12.4243 4.50421 12.3495 4.42938C12.2746 4.35454 12.1731 4.3125 12.0673 4.3125H5.33654ZM9.57898 9.4375L10.542 8.47453C10.7616 8.25486 10.7616 7.8987 10.542 7.67903C10.3223 7.45936 9.96613 7.45936 9.74646 7.67903L7.82338 9.60211C7.75391 9.67159 7.7064 9.75471 7.68087 9.84286C7.66959 9.88171 7.66239 9.9223 7.65976 9.96413C7.65901 9.97599 7.65863 9.98795 7.65863 10M9.57927 10.5625H15.9134C16.2241 10.5625 16.4759 10.3107 16.4759 10C16.4759 9.68934 16.2241 9.4375 15.9134 9.4375H9.57898M7.83097 10.4052L9.74646 12.3207C9.96613 12.5404 10.3223 12.5404 10.542 12.3207C10.7616 12.101 10.7616 11.7449 10.542 11.5252L9.57927 10.5625M7.65863 10.0002C7.65868 10.1593 7.72477 10.3029 7.83097 10.4052L7.65863 10.0002Z"
        fill="#04B39F" />
</svg>