<svg width="16" height="16" viewBox="0 0 16 16" fill="none" xmlns="http://www.w3.org/2000/svg">
  <path fill-rule="evenodd" clip-rule="evenodd"
    d="M4.3335 2.9585V10.6252H5.95443V7.90739H6.94674L8.51089 10.5417L6.87548 13.2084H8.52131L9.42756 11.6251H9.46923L10.3755 13.2084H12.0317L10.3755 10.5417L11.9692 7.87508H10.3546L9.46923 9.42717H9.42756L8.55256 7.87508L8.47769 7.74856C8.59846 7.71087 8.71321 7.66649 8.82194 7.6154C9.23872 7.42074 9.55691 7.14122 9.77653 6.77686C9.99615 6.40999 10.106 5.972 10.106 5.46289C10.106 4.95627 9.9974 4.51579 9.78027 4.14144C9.56565 3.76459 9.25244 3.47385 8.84066 3.26921C8.43137 3.06207 7.93723 2.9585 7.35824 2.9585H4.3335ZM5.95443 6.60465H7.05501C7.36447 6.60465 7.62153 6.56223 7.82617 6.47738C8.03082 6.39252 8.18305 6.26525 8.28288 6.09554C8.3852 5.92584 8.43636 5.71495 8.43636 5.46289C8.43636 5.20833 8.3852 4.99371 8.28288 4.81901C8.18305 4.64431 8.02957 4.51204 7.82243 4.4222C7.61778 4.32986 7.35948 4.28369 7.04753 4.28369H5.95443V6.60465Z"
    fill="black" />
</svg>