<svg width="16" height="16" viewBox="0 0 16 16" fill="none" xmlns="http://www.w3.org/2000/svg">
  <path
    d="M8.70136 9.33797C8.31407 9.33797 8.0001 9.65193 8.0001 10.0392C8.0001 10.4265 8.31407 10.7405 8.70136 10.7405C9.08866 10.7405 9.40262 10.4265 9.40262 10.0392C9.40262 9.65193 9.08866 9.33797 8.70136 9.33797Z"
    fill="#001C36" />
  <path
    d="M6.59758 10.7405C6.21028 10.7405 5.89632 11.0545 5.89632 11.4418C5.89632 11.829 6.21028 12.143 6.59758 12.143C6.98487 12.143 7.29884 11.829 7.29884 11.4418C7.29884 11.0545 6.98487 10.7405 6.59758 10.7405Z"
    fill="#001C36" />
  <path fill-rule="evenodd" clip-rule="evenodd"
    d="M9.74954 1.09815L9.74636 1.09814H6.25381L6.25064 1.09815H5.54569C5.25522 1.09815 5.01974 1.33363 5.01974 1.6241C5.01974 1.91457 5.25522 2.15005 5.54569 2.15005H5.72786V5.6992C2.60606 7.17494 2.15506 11.4782 4.96097 13.5592L5.16784 13.7127C6.84994 14.9602 9.15024 14.9602 10.8323 13.7127L11.0392 13.5592C13.8451 11.4782 13.3941 7.17494 10.2723 5.6992V2.15005H10.4545C10.745 2.15005 10.9805 1.91457 10.9805 1.6241C10.9805 1.33363 10.745 1.09815 10.4545 1.09815H9.74954ZM5.79446 12.8678C7.1044 13.8393 8.89578 13.8393 10.2057 12.8678L10.4126 12.7143C11.826 11.6661 12.1684 9.88713 11.5657 8.46139H4.43448C3.83177 9.88713 4.17421 11.6661 5.58759 12.7143L5.79446 12.8678ZM5.12272 7.4095H10.8775C10.5603 7.07625 10.1676 6.79641 9.70246 6.59585C9.40991 6.46972 9.22042 6.18167 9.22042 5.86309V2.15005H6.77976V5.86309C6.77976 6.18167 6.59026 6.46972 6.29772 6.59585C5.83253 6.79641 5.43986 7.07625 5.12272 7.4095Z"
    fill="black" />
</svg>