<svg width="20" height="20" viewBox="0 0 20 20" fill="none" xmlns="http://www.w3.org/2000/svg">
    <path fill-rule="evenodd" clip-rule="evenodd"
        d="M6.25 2.5C5.22187 2.5 4.375 3.34688 4.375 4.375V13.125H2.5V15.625C2.5 16.6531 3.34688 17.5 4.375 17.5H13.125H13.1445C14.1627 17.49 15 16.6456 15 15.625V6.875H17.5V4.375C17.5 3.34688 16.6531 2.5 15.625 2.5H6.25ZM6.25 3.75H13.8672C13.7966 3.9475 13.75 4.155 13.75 4.375V15.625C13.75 15.9788 13.4788 16.25 13.125 16.25C12.7731 16.255 12.505 15.9762 12.5 15.625L12.4805 13.125H5.625V4.375C5.625 4.02125 5.89625 3.75 6.25 3.75ZM15.625 3.75C15.9788 3.75 16.25 4.02125 16.25 4.375V5.625H15V4.375C15 4.02125 15.2712 3.75 15.625 3.75ZM3.75 14.375H8.75H11.2305H11.25V15.625V15.6445C11.2525 15.8595 11.2966 16.0569 11.3672 16.25H4.375C4.02125 16.25 3.75 15.9788 3.75 15.625V14.375Z"
        fill="black" />
</svg>