<svg width="16" height="16" viewBox="0 0 16 16" fill="none" xmlns="http://www.w3.org/2000/svg">
  <path fill-rule="evenodd" clip-rule="evenodd"
    d="M3.64596 2.1333H9.6043C10.1865 2.1333 10.6585 2.60527 10.6585 3.18747V6.68474L10.7489 6.76142L10.7489 6.76143C11.116 7.07234 11.5015 7.39891 11.807 7.72781C12.1675 8.11596 12.4918 8.58355 12.4918 9.11877V11.0861L13.7935 12.8216C13.915 12.9836 13.8821 13.2135 13.7201 13.335C13.5581 13.4565 13.3283 13.4236 13.2068 13.2616L11.8318 11.4283C11.7842 11.3648 11.7585 11.2876 11.7585 11.2083V9.11877C11.7585 8.87757 11.6059 8.58891 11.2696 8.22688C11.0918 8.03539 10.8835 7.84468 10.6585 7.64892V9.22307L11.0094 9.57402C11.1526 9.71721 11.1526 9.94937 11.0094 10.0926C10.8662 10.2358 10.6341 10.2358 10.4909 10.0926L10.0348 9.6365C10.0333 9.635 10.0318 9.63349 10.0303 9.63196L9.4597 9.06139C9.4187 9.02042 9.35537 9.01541 9.3089 9.04636C9.27137 9.11412 9.27501 9.19816 9.31981 9.26276L10.5717 10.7423C10.6277 10.8085 10.6585 10.8924 10.6585 10.9791V11.4375C10.6585 11.5334 10.6922 11.6635 10.7668 11.822C10.8396 11.9767 10.9402 12.1353 11.0467 12.2817C11.1524 12.427 11.2589 12.5536 11.3393 12.6441C11.3793 12.6891 11.4124 12.7246 11.435 12.7485C11.4463 12.7604 11.455 12.7694 11.4606 12.7751L11.4667 12.7813L11.4677 12.7823C11.6108 12.9255 11.6109 13.1577 11.4677 13.3009C11.3246 13.4441 11.0924 13.4441 10.9492 13.3009L10.9487 13.3003L10.9478 13.2995L10.945 13.2967L10.9357 13.2872C10.9279 13.2792 10.9169 13.2678 10.9031 13.2533C10.8757 13.2244 10.8371 13.1829 10.7912 13.1313C10.6997 13.0283 10.5771 12.8828 10.4536 12.713C10.3309 12.5443 10.2023 12.3448 10.1033 12.1343C10.006 11.9276 9.92514 11.6853 9.92514 11.4375V11.1134L8.75148 9.72638C8.74693 9.72101 8.74255 9.71551 8.73832 9.70989C8.4871 9.37578 8.4871 8.9158 8.73832 8.58169C8.74868 8.5679 8.76 8.55487 8.7722 8.54268C9.08813 8.22695 9.59007 8.21072 9.92513 8.49399V6.85417V6.85377V3.18747C9.92513 3.01028 9.78149 2.86663 9.6043 2.86663H3.64668C3.46946 2.86749 3.32598 3.01096 3.32513 3.18819V11.4358C3.32716 11.613 3.47041 11.7563 3.64769 11.7583H9.37513C9.57763 11.7583 9.7418 11.9225 9.7418 12.125C9.7418 12.3275 9.57763 12.4916 9.37513 12.4916H3.64306C3.06438 12.4871 2.59638 12.0191 2.59181 11.4404L2.5918 11.4375V3.18625C2.59372 2.60552 3.06402 2.13523 3.64475 2.1333L3.64596 2.1333Z"
    fill="#001C36" />
  <path fill-rule="evenodd" clip-rule="evenodd"
    d="M6.39619 4.57926V5.49482C5.63121 5.53472 4.87439 5.77452 4.20753 6.21423C4.10187 6.2839 4.07269 6.42604 4.14236 6.5317C4.21204 6.63736 4.35417 6.66654 4.45984 6.59687C5.05015 6.20763 5.71918 5.99329 6.39619 5.95385V6.86799C5.72321 6.90286 5.05641 7.09143 4.4502 7.43369C4.33998 7.49592 4.30108 7.6357 4.36331 7.74592C4.42553 7.85613 4.56532 7.89503 4.67553 7.83281C5.21182 7.53003 5.801 7.36143 6.39619 7.32701V8.22977C6.27216 8.2205 6.15118 8.205 6.03398 8.18793C5.98784 8.1812 5.94114 8.17403 5.89459 8.16687C5.7588 8.14601 5.62421 8.12532 5.50822 8.1166C5.3589 8.10537 5.1742 8.10637 5.02507 8.20035C4.85123 8.3099 4.79202 8.49688 4.79202 8.69707C4.79202 9.10656 5.02488 9.45578 5.35782 9.69364C5.69122 9.93183 6.14008 10.0721 6.62535 10.0721C7.11062 10.0721 7.55949 9.93183 7.89289 9.69364C8.22583 9.45578 8.45869 9.10656 8.45869 8.69707C8.45869 8.49692 8.39943 8.31002 8.2256 8.20052C8.0765 8.1066 7.89185 8.10557 7.74253 8.11677C7.6265 8.12547 7.49187 8.14613 7.35603 8.16698H7.35603L7.35603 8.16698L7.35603 8.16698C7.30951 8.17412 7.26286 8.18128 7.21677 8.18798C7.09955 8.20504 6.97856 8.22052 6.85452 8.22978V7.32701C7.44972 7.36142 8.03891 7.53002 8.5752 7.83281C8.68541 7.89503 8.8252 7.85613 8.88742 7.74592C8.94965 7.6357 8.91075 7.49592 8.80053 7.43369C8.19431 7.09143 7.5275 6.90286 6.85452 6.86799V5.95385C7.53152 5.99329 8.20055 6.20763 8.79087 6.59687C8.89653 6.66654 9.03867 6.63736 9.10834 6.5317C9.17801 6.42604 9.14883 6.2839 9.04317 6.21423C8.37631 5.77452 7.6195 5.53472 6.85452 5.49482V4.57925C7.44972 4.61369 8.03891 4.78238 8.57514 5.08535C8.68533 5.14761 8.82513 5.10875 8.88739 4.99856C8.94965 4.88836 8.91079 4.74856 8.80059 4.6863C8.14661 4.31681 7.42201 4.12632 6.69522 4.11485C6.6732 4.10781 6.64972 4.104 6.62535 4.104C6.60099 4.104 6.57751 4.10781 6.55548 4.11485C5.8287 4.12633 5.10411 4.31681 4.45014 4.6863C4.33994 4.74856 4.30108 4.88836 4.36334 4.99856C4.4256 5.10875 4.5654 5.14761 4.67559 5.08535C5.21181 4.78239 5.80099 4.61369 6.39619 4.57926ZM5.2642 8.59627C5.25896 8.6084 5.25035 8.63799 5.25035 8.69707C5.25035 8.92008 5.3766 9.14377 5.62425 9.3207C5.87145 9.4973 6.22466 9.61373 6.62535 9.61373C7.02604 9.61373 7.37926 9.4973 7.62645 9.3207C7.87411 9.14377 8.00035 8.92008 8.00035 8.69707C8.00035 8.63807 7.99175 8.60854 7.98653 8.59645C7.98325 8.58885 7.98181 8.58847 7.98141 8.58836L7.98132 8.58833C7.96806 8.57998 7.91779 8.56325 7.77681 8.57382C7.67988 8.58109 7.57162 8.59769 7.44271 8.61746L7.44269 8.61746L7.44269 8.61746C7.39267 8.62513 7.33955 8.63328 7.28277 8.64154C7.08731 8.66998 6.86344 8.69707 6.62535 8.69707C6.38725 8.69707 6.16336 8.66995 5.96789 8.64147C5.91104 8.63319 5.85786 8.62502 5.80779 8.61733C5.67894 8.59755 5.57074 8.58093 5.47385 8.57365C5.33287 8.56305 5.28265 8.57978 5.26943 8.58811L5.26934 8.58814C5.26896 8.58824 5.2675 8.58862 5.2642 8.59627Z"
    fill="black" />
</svg>