<svg width="16" height="16" viewBox="0 0 16 16" fill="none" xmlns="http://www.w3.org/2000/svg">
  <path fill-rule="evenodd" clip-rule="evenodd"
    d="M11.5084 3.23864C11.459 2.88096 11.8925 2.6655 12.1479 2.9208L13.0225 3.79543C13.2778 4.05076 13.0623 4.48427 12.7046 4.43488C12.6147 4.42246 12.5312 4.38099 12.467 4.31678L12.306 4.15579L11.7443 4.71754L12.9974 5.97069C13.1406 6.11389 13.1406 6.34605 12.9974 6.48924C12.8543 6.63243 12.6221 6.63243 12.4789 6.48924L12.3062 6.3165L7.92003 10.7024C7.65004 10.9724 7.23949 11.0161 6.92396 10.8336C6.42118 11.3115 5.62616 11.3038 5.13285 10.8104C4.63953 10.3171 4.6318 9.52211 5.10965 9.01933C4.92715 8.7038 4.97089 8.29325 5.24088 8.02327L9.6269 3.63724L9.45405 3.46439C9.31086 3.3212 9.31086 3.08904 9.45405 2.94585C9.59725 2.80266 9.82941 2.80266 9.9726 2.94585L10.4044 3.37767L11.2257 4.199L11.7875 3.63724L11.6265 3.47626C11.5623 3.41204 11.5208 3.3286 11.5084 3.23864ZM10.1454 4.15579L8.50339 5.79785L10.1454 7.4399L11.7875 5.79785L10.1454 4.15579ZM9.6269 7.95845L7.98484 6.31639L5.75942 8.54181C5.72362 8.57761 5.72362 8.63565 5.75942 8.67145L7.27184 10.1839C7.30764 10.2197 7.36568 10.2197 7.40148 10.1839L9.6269 7.95845ZM5.61055 9.55967C5.4376 9.77562 5.45121 10.0917 5.65139 10.2919C5.85157 10.4921 6.16768 10.5057 6.38362 10.3327L5.61055 9.55967Z"
    fill="#001C36" />
  <path fill-rule="evenodd" clip-rule="evenodd"
    d="M5.65136 10.292C5.79455 10.4352 5.79455 10.6673 5.65136 10.8105L3.87681 12.5851C3.73362 12.7283 3.50146 12.7283 3.35827 12.5851C3.21508 12.4419 3.21508 12.2097 3.35827 12.0665L5.13282 10.292C5.27601 10.1488 5.50817 10.1488 5.65136 10.292Z"
    fill="#001C36" />
  <path fill-rule="evenodd" clip-rule="evenodd"
    d="M7.39069 9.09271C7.48018 9.00321 7.62528 9.00321 7.71478 9.09271L8.1469 9.52483C8.2364 9.61433 8.2364 9.75943 8.1469 9.84892C8.05741 9.93842 7.9123 9.93842 7.82281 9.84892L7.39069 9.4168C7.30119 9.3273 7.30119 9.1822 7.39069 9.09271Z"
    fill="#001C36" />
  <path fill-rule="evenodd" clip-rule="evenodd"
    d="M8.03913 8.44476C8.12862 8.35527 8.27372 8.35527 8.36322 8.44476L8.79534 8.87688C8.88483 8.96638 8.88483 9.11148 8.79534 9.20097C8.70584 9.29047 8.56074 9.29047 8.47125 9.20097L8.03913 8.76885C7.94963 8.67936 7.94963 8.53426 8.03913 8.44476Z"
    fill="#001C36" />
  <path fill-rule="evenodd" clip-rule="evenodd"
    d="M8.68708 7.79657C8.77657 7.70707 8.92167 7.70707 9.01117 7.79657L9.44329 8.22869C9.53278 8.31818 9.53278 8.46328 9.44329 8.55278C9.35379 8.64227 9.20869 8.64227 9.1192 8.55278L8.68708 8.12066C8.59758 8.03116 8.59758 7.88606 8.68708 7.79657Z"
    fill="black" />
</svg>