<svg width="20" height="20" viewBox="0 0 20 20" fill="none" xmlns="http://www.w3.org/2000/svg">
    <path fill-rule="evenodd" clip-rule="evenodd"
        d="M5.85889 12.1091C5.85296 12.3555 6.01547 12.5742 6.25301 12.6396C6.49055 12.7051 6.74215 12.6004 6.8632 12.3858L7.5091 11.2408C8.27509 9.88294 9.79995 9.139 11.3416 9.37104L11.4485 9.38712C11.4677 9.87235 11.495 10.3573 11.5303 10.8419L11.5789 11.5081C11.6184 12.0498 12.2224 12.3527 12.6802 12.0602C14.1817 11.1007 15.4871 9.86442 16.5267 8.41719L16.8532 7.96268C16.9877 7.77551 16.9877 7.52341 16.8532 7.33624L16.5267 6.88173C15.4871 5.4345 14.1817 4.1982 12.6802 3.23874C12.2224 2.94626 11.6184 3.24911 11.5789 3.79086L11.5303 4.45704C11.5018 4.84768 11.4786 5.23862 11.4606 5.62973L10.7317 5.62973C8.10843 5.62973 5.96434 7.72289 5.90129 10.3454L5.85889 12.1091ZM11.5014 8.30925C9.76963 8.04861 8.05434 8.74582 6.99184 10.0905C7.17911 8.1841 8.78593 6.70347 10.7317 6.70347L11.9763 6.70347C12.2657 6.70347 12.503 6.47415 12.5129 6.18496C12.5317 5.63463 12.5612 5.08457 12.6012 4.5351L12.6051 4.4818C13.7815 5.31335 14.8125 6.33583 15.6547 7.50817L15.7562 7.64946L15.6547 7.79075C14.8125 8.96309 13.7815 9.98557 12.6051 10.8171L12.6012 10.7638C12.5561 10.1454 12.5245 9.52631 12.5063 8.90688C12.4987 8.64731 12.3064 8.4304 12.0496 8.39175L11.5014 8.30925Z"
        fill="black" />
    <path
        d="M14.7288 13.7989C14.8132 13.0771 14.8728 12.3532 14.9076 11.6283C14.9113 11.5499 14.9469 11.4764 15.0058 11.4244C15.2659 11.1948 15.5179 10.9562 15.7614 10.709C15.853 10.6161 16.013 10.6811 16.0102 10.8115C15.9879 11.8509 15.9162 12.8894 15.7953 13.9236C15.6259 15.3714 14.4632 16.506 13.0229 16.667C10.5414 16.9443 7.97639 16.9443 5.49491 16.667C4.05463 16.506 2.89188 15.3714 2.72255 13.9236C2.42582 11.3865 2.42582 8.82349 2.72255 6.28638C2.89188 4.8386 4.05463 3.70401 5.49491 3.54303C7.13486 3.35975 8.8113 3.29759 10.476 3.35656C10.6162 3.36153 10.7127 3.49874 10.6952 3.63789C10.6915 3.66687 10.6886 3.69618 10.6865 3.72581L10.6498 4.22962C10.6413 4.34529 10.5426 4.4333 10.4267 4.42923C8.81816 4.3728 7.19816 4.4331 5.61418 4.61013C4.66205 4.71655 3.89934 5.46789 3.78903 6.41112C3.50198 8.86535 3.50198 11.3447 3.78903 13.7989C3.89934 14.7421 4.66205 15.4935 5.61418 15.5999C8.01639 15.8684 10.5014 15.8684 12.9036 15.5999C13.8558 15.4935 14.6185 14.7421 14.7288 13.7989Z"
        fill="black" />
</svg>