<svg width="16" height="16" viewBox="0 0 16 16" fill="none" xmlns="http://www.w3.org/2000/svg">
    <path
        d="M12.0577 10.8659L11.1655 8.52793L10.882 9.06425V10.8659H9.96484V5H10.882V7.55587L12.0827 5H12.9999L11.7242 7.61453L12.9999 10.8659H12.0577Z"
        fill="#001C36" />
    <path
        d="M6.48242 10.8659V5H7.93323C8.8504 5 9.30065 5.51117 9.30065 6.44972V9.4162C9.30065 10.3547 8.8504 10.8659 7.93323 10.8659H6.48242ZM7.91655 5.83799H7.3996V10.0279H7.91655C8.20838 10.0279 8.38348 9.8771 8.38348 9.4581V6.40782C8.38348 5.98883 8.20838 5.83799 7.91655 5.83799Z"
        fill="#001C36" />
    <path
        d="M3.02501 6.47486C3.02501 5.53631 3.4836 5 4.37576 5C5.26793 5 5.72651 5.53631 5.72651 6.47486V6.65922H4.85937V6.4162C4.85937 5.99721 4.69261 5.83799 4.40078 5.83799C4.10895 5.83799 3.94219 5.99721 3.94219 6.4162C3.94219 7.62291 5.73485 7.84916 5.73485 9.52514C5.73485 10.4637 5.26793 11 4.36743 11C3.46693 11 3 10.4637 3 9.52514V9.1648H3.86715V9.5838C3.86715 10.0028 4.05058 10.1536 4.34241 10.1536C4.63424 10.1536 4.81768 10.0028 4.81768 9.5838C4.81768 8.37709 3.02501 8.15084 3.02501 6.47486Z"
        fill="#001C36" />
    <path fill-rule="evenodd" clip-rule="evenodd"
        d="M2.71923 3.4C2.63457 3.4 2.55337 3.43363 2.4935 3.4935C2.43363 3.55337 2.4 3.63457 2.4 3.71923V5.64231C2.4 5.89084 2.19853 6.09231 1.95 6.09231C1.70147 6.09231 1.5 5.89084 1.5 5.64231V3.71923C1.5 3.39587 1.62845 3.08575 1.8571 2.8571C2.08575 2.62845 2.39587 2.5 2.71923 2.5H4.64231C4.89084 2.5 5.09231 2.70147 5.09231 2.95C5.09231 3.19853 4.89084 3.4 4.64231 3.4H2.71923Z"
        fill="#001C36" />
    <path fill-rule="evenodd" clip-rule="evenodd"
        d="M10.8076 2.95C10.8076 2.70147 11.0091 2.5 11.2576 2.5H13.1807C13.5041 2.5 13.8142 2.62845 14.0428 2.8571C14.2715 3.08575 14.3999 3.39587 14.3999 3.71923V5.64231C14.3999 5.89084 14.1985 6.09231 13.9499 6.09231C13.7014 6.09231 13.4999 5.89084 13.4999 5.64231V3.71923C13.4999 3.63457 13.4663 3.55337 13.4064 3.4935C13.3466 3.43363 13.2654 3.4 13.1807 3.4H11.2576C11.0091 3.4 10.8076 3.19853 10.8076 2.95Z"
        fill="#001C36" />
    <path fill-rule="evenodd" clip-rule="evenodd"
        d="M1.95 9.80762C2.19853 9.80762 2.4 10.0091 2.4 10.2576V12.1807C2.4 12.2654 2.43363 12.3466 2.4935 12.4064C2.55337 12.4663 2.63457 12.4999 2.71923 12.4999H4.64231C4.89084 12.4999 5.09231 12.7014 5.09231 12.9499C5.09231 13.1985 4.89084 13.3999 4.64231 13.3999H2.71923C2.39587 13.3999 2.08575 13.2715 1.8571 13.0428C1.62845 12.8142 1.5 12.5041 1.5 12.1807V10.2576C1.5 10.0091 1.70147 9.80762 1.95 9.80762Z"
        fill="#001C36" />
    <path fill-rule="evenodd" clip-rule="evenodd"
        d="M13.9499 9.80762C14.1985 9.80762 14.3999 10.0091 14.3999 10.2576V12.1807C14.3999 12.5041 14.2715 12.8142 14.0428 13.0428C13.8142 13.2715 13.5041 13.3999 13.1807 13.3999H11.2576C11.0091 13.3999 10.8076 13.1985 10.8076 12.9499C10.8076 12.7014 11.0091 12.4999 11.2576 12.4999H13.1807C13.2654 12.4999 13.3466 12.4663 13.4064 12.4064C13.4663 12.3466 13.4999 12.2654 13.4999 12.1807V10.2576C13.4999 10.0091 13.7014 9.80762 13.9499 9.80762Z"
        fill="#001C36" />
</svg>