<svg width="20" height="20" viewBox="0 0 20 20" fill="none" xmlns="http://www.w3.org/2000/svg">
    <path fill-rule="evenodd" clip-rule="evenodd"
        d="M10 1.875C5.52002 1.875 1.875 5.52002 1.875 10C1.875 14.48 5.52002 18.125 10 18.125C14.48 18.125 18.125 14.48 18.125 10C18.125 5.52002 14.48 1.875 10 1.875ZM10 3.125C13.8037 3.125 16.875 6.19629 16.875 10C16.875 13.8037 13.8037 16.875 10 16.875C6.19629 16.875 3.125 13.8037 3.125 10C3.125 6.19629 6.19629 3.125 10 3.125ZM10 5C8.28125 5 6.875 6.40625 6.875 8.125C6.875 9.07227 7.31689 9.91455 7.98828 10.4883C6.58203 11.2183 5.625 12.688 5.625 14.375H6.875C6.875 12.6416 8.2666 11.25 10 11.25C11.7334 11.25 13.125 12.6416 13.125 14.375H14.375C14.375 12.688 13.418 11.2183 12.0117 10.4883C12.6831 9.91455 13.125 9.07227 13.125 8.125C13.125 6.40625 11.7188 5 10 5ZM10 6.25C11.0425 6.25 11.875 7.08252 11.875 8.125C11.875 9.16748 11.0425 10 10 10C8.95752 10 8.125 9.16748 8.125 8.125C8.125 7.08252 8.95752 6.25 10 6.25Z"
        fill="#04B39F" />
</svg>